<svg width="14" height="13" viewBox="0 0 14 13" fill="none" xmlns="http://www.w3.org/2000/svg">
<path d="M0.589474 2.74114e-05C0.433136 2.74114e-05 0.283201 0.0685093 0.172653 0.190408C0.0621052 0.312306 0 0.477636 0 0.650026C0 0.822416 0.0621052 0.987746 0.172653 1.10964C0.283201 1.23154 0.433136 1.30002 0.589474 1.30002H1.89811L3.44488 8.12501C3.57634 8.70351 4.04615 9.10001 4.58669 9.10001H11.348C11.8803 9.10001 12.3324 8.71001 12.4721 8.14451L14 1.95002H4.12632L4.42105 3.25002H12.4709L11.3474 7.80001H4.5861L3.03992 0.975025C2.97605 0.695025 2.82881 0.446757 2.62179 0.269981C2.41477 0.0932043 2.15994 -0.0018544 1.89811 2.74114e-05H0.589474ZM10.6105 9.10001C9.64084 9.10001 8.8421 9.98076 8.8421 11.05C8.8421 12.1193 9.64084 13 10.6105 13C11.5802 13 12.3789 12.1193 12.3789 11.05C12.3789 9.98076 11.5802 9.10001 10.6105 9.10001ZM5.30526 9.10001C4.33558 9.10001 3.53684 9.98076 3.53684 11.05C3.53684 12.1193 4.33558 13 5.30526 13C6.27495 13 7.07368 12.1193 7.07368 11.05C7.07368 9.98076 6.27495 9.10001 5.30526 9.10001ZM5.30526 10.4C5.63773 10.4 5.89474 10.6834 5.89474 11.05C5.89474 11.4166 5.63773 11.7 5.30526 11.7C4.9728 11.7 4.71579 11.4166 4.71579 11.05C4.71579 10.6834 4.9728 10.4 5.30526 10.4ZM10.6105 10.4C10.943 10.4 11.2 10.6834 11.2 11.05C11.2 11.4166 10.943 11.7 10.6105 11.7C10.2781 11.7 10.0211 11.4166 10.0211 11.05C10.0211 10.6834 10.2781 10.4 10.6105 10.4Z" fill="#52A9BE"/>
</svg>
