<svg width="12" height="13" viewBox="0 0 12 13" fill="none" xmlns="http://www.w3.org/2000/svg">
<path d="M1.33333 13H10.6667C11.0203 13 11.3594 12.863 11.6095 12.6193C11.8595 12.3755 12 12.0448 12 11.7001V5.85028C12.0005 5.76474 11.9837 5.67994 11.9505 5.60075C11.9173 5.52156 11.8684 5.44954 11.8067 5.3888L6.47333 0.189008C6.34842 0.0679495 6.17945 0 6.00333 0C5.8272 0 5.65824 0.0679495 5.53333 0.189008L0.2 5.3888C0.137008 5.449 0.0868945 5.52078 0.0525635 5.6C0.0182324 5.67922 0.000366166 5.76429 0 5.85028V11.7001C0 12.0448 0.140476 12.3755 0.390524 12.6193C0.640572 12.863 0.97971 13 1.33333 13ZM4.66666 11.7001V8.45018H7.33333V11.7001H4.66666ZM1.33333 6.11677L5.99999 1.56695L10.6667 6.11677V11.7001H8.66666V8.45018C8.66666 8.10541 8.52618 7.77477 8.27613 7.53098C8.02609 7.28719 7.68695 7.15023 7.33333 7.15023H4.66666C4.31304 7.15023 3.9739 7.28719 3.72385 7.53098C3.47381 7.77477 3.33333 8.10541 3.33333 8.45018V11.7001H1.33333V6.11677Z" fill="#6F768C"/>
</svg>
